<mxfile host="65bd71144e">
    <diagram id="W6hNU-hNJkfqUR0QWWaM" name="페이지-1">
        <mxGraphModel dx="1625" dy="617" grid="1" gridSize="10" guides="1" tooltips="1" connect="1" arrows="1" fold="1" page="1" pageScale="1" pageWidth="827" pageHeight="1169" math="0" shadow="0">
            <root>
                <mxCell id="0"/>
                <mxCell id="1" parent="0"/>
                <mxCell id="13" style="edgeStyle=none;html=1;exitX=0.5;exitY=1;exitDx=0;exitDy=0;entryX=0.5;entryY=0;entryDx=0;entryDy=0;strokeWidth=3;" edge="1" parent="1" source="2" target="12">
                    <mxGeometry relative="1" as="geometry"/>
                </mxCell>
                <mxCell id="2" value="Microservice&lt;br style=&quot;font-size: 35px;&quot;&gt;Architecture" style="rounded=1;whiteSpace=wrap;html=1;strokeWidth=3;fontSize=35;fontFamily=빙그레 싸만코체;fontSource=https%3A%2F%2Fcdn.jsdelivr.net%2Fgh%2Fprojectnoonnu%2Fnoonfonts_20-10%401.0%2FBinggraeSamanco-Bold.woff;" parent="1" vertex="1">
                    <mxGeometry x="90" y="200" width="230" height="110" as="geometry"/>
                </mxCell>
                <mxCell id="3" value="Service" style="ellipse;whiteSpace=wrap;html=1;rounded=1;fontSize=35;strokeWidth=3;fontFamily=빙그레 싸만코체;fontSource=https%3A%2F%2Fcdn.jsdelivr.net%2Fgh%2Fprojectnoonnu%2Fnoonfonts_20-10%401.0%2FBinggraeSamanco-Bold.woff;" parent="1" vertex="1">
                    <mxGeometry x="450" y="300" width="220" height="110" as="geometry"/>
                </mxCell>
                <mxCell id="4" value="SOA" style="rounded=1;whiteSpace=wrap;html=1;strokeWidth=3;fontSize=35;fontFamily=빙그레 싸만코체;fontSource=https%3A%2F%2Fcdn.jsdelivr.net%2Fgh%2Fprojectnoonnu%2Fnoonfonts_20-10%401.0%2FBinggraeSamanco-Bold.woff;" parent="1" vertex="1">
                    <mxGeometry x="820" y="200" width="230" height="110" as="geometry"/>
                </mxCell>
                <mxCell id="11" value="" style="whiteSpace=wrap;html=1;aspect=fixed;rounded=1;fontSize=25;strokeWidth=3;" parent="1" vertex="1">
                    <mxGeometry x="-100" y="210" width="80" height="80" as="geometry"/>
                </mxCell>
                <mxCell id="12" value="REST API" style="ellipse;whiteSpace=wrap;html=1;rounded=1;fontSize=35;strokeWidth=3;fontFamily=빙그레 싸만코체;fontSource=https%3A%2F%2Fcdn.jsdelivr.net%2Fgh%2Fprojectnoonnu%2Fnoonfonts_20-10%401.0%2FBinggraeSamanco-Bold.woff;" vertex="1" parent="1">
                    <mxGeometry x="95" y="420" width="220" height="110" as="geometry"/>
                </mxCell>
                <mxCell id="14" value="&lt;font style=&quot;font-size: 25px&quot;&gt;Service open&lt;/font&gt;" style="text;html=1;strokeColor=none;fillColor=none;align=center;verticalAlign=middle;whiteSpace=wrap;rounded=0;fontSize=35;fontFamily=빙그레 싸만코체;fontSource=https%3A%2F%2Fcdn.jsdelivr.net%2Fgh%2Fprojectnoonnu%2Fnoonfonts_20-10%401.0%2FBinggraeSamanco-Bold.woff;" vertex="1" parent="1">
                    <mxGeometry x="70" y="340" width="140" height="30" as="geometry"/>
                </mxCell>
                <mxCell id="16" value="" style="curved=1;endArrow=classic;html=1;strokeWidth=3;entryX=0;entryY=0.5;entryDx=0;entryDy=0;" edge="1" parent="1" target="3">
                    <mxGeometry width="50" height="50" relative="1" as="geometry">
                        <mxPoint x="315" y="470" as="sourcePoint"/>
                        <mxPoint x="365" y="420" as="targetPoint"/>
                        <Array as="points">
                            <mxPoint x="390" y="470"/>
                            <mxPoint x="365" y="355"/>
                        </Array>
                    </mxGeometry>
                </mxCell>
                <mxCell id="17" value="&lt;font style=&quot;font-size: 25px&quot;&gt;API&lt;/font&gt;" style="text;html=1;strokeColor=none;fillColor=none;align=center;verticalAlign=middle;whiteSpace=wrap;rounded=0;fontSize=35;fontFamily=빙그레 싸만코체;fontSource=https%3A%2F%2Fcdn.jsdelivr.net%2Fgh%2Fprojectnoonnu%2Fnoonfonts_20-10%401.0%2FBinggraeSamanco-Bold.woff;" vertex="1" parent="1">
                    <mxGeometry x="280" y="510" width="70" height="30" as="geometry"/>
                </mxCell>
                <mxCell id="22" style="edgeStyle=none;html=1;exitX=1;exitY=0.5;exitDx=0;exitDy=0;exitPerimeter=0;entryX=0.5;entryY=1;entryDx=0;entryDy=0;fontFamily=빙그레 싸만코체;fontSource=https%3A%2F%2Fcdn.jsdelivr.net%2Fgh%2Fprojectnoonnu%2Fnoonfonts_20-10%401.0%2FBinggraeSamanco-Bold.woff;fontSize=35;startArrow=classic;startFill=1;endArrow=none;endFill=0;strokeWidth=3;" edge="1" parent="1" source="18" target="4">
                    <mxGeometry relative="1" as="geometry"/>
                </mxCell>
                <mxCell id="18" value="" style="shape=cylinder3;whiteSpace=wrap;html=1;boundedLbl=1;backgroundOutline=1;size=15;fontFamily=빙그레 싸만코체;fontSource=https%3A%2F%2Fcdn.jsdelivr.net%2Fgh%2Fprojectnoonnu%2Fnoonfonts_20-10%401.0%2FBinggraeSamanco-Bold.woff;rotation=-90;strokeWidth=3;" vertex="1" parent="1">
                    <mxGeometry x="880" y="345" width="110" height="240" as="geometry"/>
                </mxCell>
                <mxCell id="19" value="" style="curved=1;endArrow=none;html=1;fontFamily=빙그레 싸만코체;fontSource=https%3A%2F%2Fcdn.jsdelivr.net%2Fgh%2Fprojectnoonnu%2Fnoonfonts_20-10%401.0%2FBinggraeSamanco-Bold.woff;strokeWidth=3;entryX=0.5;entryY=0;entryDx=0;entryDy=0;entryPerimeter=0;exitX=1;exitY=0.5;exitDx=0;exitDy=0;endFill=0;startArrow=classic;startFill=1;" edge="1" parent="1" source="3" target="18">
                    <mxGeometry width="50" height="50" relative="1" as="geometry">
                        <mxPoint x="670" y="470" as="sourcePoint"/>
                        <mxPoint x="720" y="420" as="targetPoint"/>
                        <Array as="points">
                            <mxPoint x="740" y="380"/>
                            <mxPoint x="710" y="465"/>
                        </Array>
                    </mxGeometry>
                </mxCell>
                <mxCell id="20" value="WSDL/UDDI/ESB" style="text;html=1;strokeColor=none;fillColor=none;align=center;verticalAlign=middle;whiteSpace=wrap;rounded=0;fontFamily=빙그레 싸만코체;fontSource=https%3A%2F%2Fcdn.jsdelivr.net%2Fgh%2Fprojectnoonnu%2Fnoonfonts_20-10%401.0%2FBinggraeSamanco-Bold.woff;fontSize=35;" vertex="1" parent="1">
                    <mxGeometry x="840" y="445" width="220" height="40" as="geometry"/>
                </mxCell>
                <mxCell id="23" value="&lt;font style=&quot;font-size: 25px&quot;&gt;RESTful&lt;/font&gt;" style="text;html=1;strokeColor=none;fillColor=none;align=center;verticalAlign=middle;whiteSpace=wrap;rounded=0;fontSize=35;fontFamily=빙그레 싸만코체;fontSource=https%3A%2F%2Fcdn.jsdelivr.net%2Fgh%2Fprojectnoonnu%2Fnoonfonts_20-10%401.0%2FBinggraeSamanco-Bold.woff;" vertex="1" parent="1">
                    <mxGeometry x="300" y="360" width="70" height="30" as="geometry"/>
                </mxCell>
                <mxCell id="24" value="&lt;font style=&quot;font-size: 25px&quot;&gt;Web Service SOAP&lt;/font&gt;" style="text;html=1;strokeColor=none;fillColor=none;align=center;verticalAlign=middle;whiteSpace=wrap;rounded=0;fontSize=35;fontFamily=빙그레 싸만코체;fontSource=https%3A%2F%2Fcdn.jsdelivr.net%2Fgh%2Fprojectnoonnu%2Fnoonfonts_20-10%401.0%2FBinggraeSamanco-Bold.woff;spacing=-10;" vertex="1" parent="1">
                    <mxGeometry x="730" y="350" width="150" height="50" as="geometry"/>
                </mxCell>
                <mxCell id="26" value="" style="whiteSpace=wrap;html=1;aspect=fixed;rounded=1;fontSize=25;strokeWidth=3;" vertex="1" parent="1">
                    <mxGeometry x="260" y="40" width="80" height="80" as="geometry"/>
                </mxCell>
                <mxCell id="29" value="&lt;font style=&quot;font-size: 25px&quot;&gt;Middleware&lt;/font&gt;" style="text;html=1;strokeColor=none;fillColor=none;align=center;verticalAlign=middle;whiteSpace=wrap;rounded=0;fontSize=35;fontFamily=빙그레 싸만코체;fontSource=https%3A%2F%2Fcdn.jsdelivr.net%2Fgh%2Fprojectnoonnu%2Fnoonfonts_20-10%401.0%2FBinggraeSamanco-Bold.woff;" vertex="1" parent="1">
                    <mxGeometry x="827" y="520" width="103" height="30" as="geometry"/>
                </mxCell>
            </root>
        </mxGraphModel>
    </diagram>
</mxfile>